Patient4_TMGait_0pt4_03_right_31_EMG.mot
version=1
nRows=30
nColumns=33
inDegrees=no
endheader
time	1LAddLong	2LGlutMax	3LGlutMed	4LIliopsoas	5LSemiMemb	6LBicFemLong	7LRecFem	8LVastMed	9LVastLat	10LGasMed	11LTibAnt	12lTibPost	13LPeroneusLong	14LSol	15LExtDigLong	16LFlexDigLong	17RAddLong	18RGlutMax	19RGlutMed	20RIliopsoas	21RSemiMemb	22RBicFemLong	23RRecFem	24RVastMed	25RVastLat	26RGasMed	27RTibAnt	28RTibPost	29RPeroneusLong	30RSol	31RExtDigLong	32RFlexDigLong
40.692	-0.00885	-0.21606	0.014496	-0.016785	0.018158	-0.015564	0.21698	0.018921	0.005341	-0.063629	0.011597	0.010529	-0.032196	0.063477	0.009155	-0.024567	-0.0383	-1.2747	-1.0347	-0.006409	-0.04715	0.063019	0.43427	0.23941	0.011444	0.026398	0.015259	-0.003815	-1.3588	-0.39078	-0.006409	-0.019379
40.693	-0.00885	-0.20767	0.020752	0.003662	0.002747	-0.016479	0.18784	0.016022	-0.012665	-0.042572	0.010223	0.007477	-0.046692	0.079193	0.011139	-0.007324	-0.048065	-1.2679	-0.71594	-0.27771	0.064697	0.15915	0.40329	0.062866	0.01358	0.016022	-0.050964	-0.001831	-0.20508	-0.27313	-0.005951	-0.024872
40.694	-0.001984	-0.24735	0.056458	0.008392	0.000916	-0.039215	0.1503	0.018463	0.005341	-0.032043	0.017242	0.018463	-0.040741	0.1181	0.017242	0.010376	-0.027771	-1.378	-0.66757	-0.32486	0.087433	0.14832	0.39963	0.014038	0.001373	0.007324	0.028839	-0.007172	1.5057	0.005341	-0.004883	-0.014496
40.695	-0.016479	-0.24338	0.065918	0.002289	0.001221	0.000763	0.16739	0.010376	0.000763	-0.01236	0.02243	-0.00351	-0.03952	0.082245	0.009766	0.014648	-0.022125	-1.5147	-0.86044	-0.088806	0.1178	0.14282	0.47684	-0.052032	-0.001678	-0.024109	0.17502	-0.006256	1.7525	0.17181	-0.008087	-0.024261
40.696	-0.003967	-0.23987	0.075684	-0.014191	0.004272	-0.000763	0.15625	0.003204	-0.007629	-0.012512	0.014496	-0.012665	-0.037842	-0.011444	0.007019	-0.005798	-0.01709	-1.507	-0.69138	0.041351	0.071869	0.14954	0.466	-0.049133	-0.036011	-0.043335	0.14313	-0.006714	1.1374	0.080566	-0.006866	-0.019379
40.697	0.000916	-0.28381	0.054169	-0.045471	0.00473	0.016174	0.11169	0.003204	0.004272	-0.013123	0.016022	-0.016632	-0.022888	0.026245	0.006714	-0.011139	-0.031433	-1.4771	-0.26733	0.14816	0.043488	0.2179	0.43366	0.00412	0.007477	-0.035858	0.020905	-0.003815	0.36301	0.08194	-0.001526	-0.016479
40.698	-0.001221	-0.31616	0.042725	-0.046082	0.020447	-0.003052	0.15884	0.002289	0.013733	-0.016937	0.007019	-0.011597	-0.050354	0.16434	0.006866	-0.015717	-0.036621	-1.4882	-0.634	0.14542	0.11108	0.19241	0.53085	0.064392	0.014954	-0.016479	-0.31525	0.001678	1.187	0.066071	-0.003662	-0.009155
40.699	-0.000153	-0.34103	0.011444	-0.017395	0.01236	-0.001984	0.23621	-0.007172	0.02243	-0.005341	0.009155	-0.023041	-0.019073	0.13641	0.001984	-0.015564	0.001526	-1.4572	-0.55405	0.031128	0.018311	0.11627	0.55817	-0.015869	-0.033264	-0.003662	-0.22995	-0.003967	-0.025024	0.02655	-0.013885	-0.006714
40.7	-0.005035	-0.36209	0.014648	0.021667	-0.028229	0.014343	0.31113	-0.009918	0.01358	-0.005188	0.001984	-0.028229	-0.020142	0.1088	-0.002899	-0.013733	0.009613	-1.4446	-0.56625	-0.041962	-0.054626	0.056915	0.54123	-0.032959	-0.074463	-0.007019	0.042267	-0.002289	-2.2583	0.14023	-0.007172	-0.017242
40.701	-0.001221	-0.37933	0.022278	0.005951	-0.000153	0.00351	0.28488	0.007172	-0.005341	0.000153	0.000763	-0.028687	-0.02655	0.096741	0.006866	-0.0177	0.016022	-1.4439	-0.28259	-0.03952	-0.10834	0.069885	0.24338	-0.037537	-0.09613	-0.013733	0.15228	0.006561	-2.2513	0.233	-0.005493	-0.020142
40.702	0.000763	-0.39978	0.033417	-0.004578	0.004883	0.005493	0.20859	-0.000305	-0.006561	0.002594	0.004272	-0.036469	-0.019836	0.12909	0.000153	-0.019226	0.031128	-1.436	-0.67108	0.002899	-0.099335	0.15411	0.10757	0.091858	-0.059814	-0.032043	0.11276	0.011597	-0.87418	0.19165	0.004883	-0.021667
40.703	-0.001526	-0.39169	0.033264	-0.02182	-0.006714	0.013733	0.15991	0.010986	-0.007172	0.006256	0.006409	-0.028992	-0.024109	0.12161	0.00885	-0.018616	0.048828	-1.4871	-0.50873	-0.010834	-0.12177	0.14786	0.090332	0.1178	0.00412	-0.018616	-0.001221	0.00473	0.45746	0.079651	-0.00946	-0.020447
40.704	0.00885	-0.39414	0.011902	-0.006866	-0.011597	-0.005188	0.061798	0.008698	-0.015564	0.007324	0.014343	-0.030212	-0.024414	0.10681	0.001221	-0.031128	0.032043	-1.4575	-0.177	0.01709	0.12054	0.15045	0.039215	0.054321	-0.024261	-0.012512	-0.07431	-0.001221	0.41245	0.098267	-0.002747	-0.016174
40.705	-0.005035	-0.41687	0.012817	-0.000305	-0.014343	0.006866	0.18768	0.005341	-0.015717	0.002594	0.020752	-0.033722	-0.029144	0.11017	-0.006104	-0.015717	-0.011292	-1.3873	-0.41824	0.016022	0.14374	0.034485	0.069427	0.10284	-0.026703	-0.0177	0.053253	-0.001068	-0.088806	0.1474	-0.007324	-0.027466
40.706	0.004425	-0.44373	0.018768	-0.004272	0.002289	0.006104	0.26718	0.011139	-0.022583	0.014343	0.038452	-0.032959	-0.066681	0.12085	0	-0.02655	-0.036316	-1.3519	-0.37277	0.03479	0.11322	-0.072937	-0.070038	0.052643	-0.032654	-0.011292	0.13031	0.000153	-0.44647	0.078278	-0.006561	-0.017242
40.707	-0.00351	-0.43579	0.00351	0.001526	0.015564	0.007629	0.22339	-0.005035	-0.029449	0.015869	0.04776	-0.037384	-0.057678	0.10223	0	-0.023346	-0.031738	-1.2871	-0.1561	0.007782	0.054779	-0.072327	-0.26886	0.04715	0.008698	-0.002747	0.11597	0.001984	-0.40924	0.050201	-0.007019	-0.020447
40.708	-0.003815	-0.43533	0.017548	-0.013733	-0.00473	-0.008545	0.14267	0.007629	-0.028839	0.022583	0.000153	-0.025177	-0.035248	0.09491	0.004425	-0.017242	0.000153	-1.2639	-0.16403	-0.066528	-0.12466	-0.050964	-0.18051	0.027466	-0.028229	-0.004883	0.054016	0.001526	0.60806	-0.080566	-0.006256	-0.018005
40.709	-0.010376	-0.42374	0.037842	-0.000458	-0.014038	0.009155	0.10452	0.012665	-0.023804	0.019531	-0.035095	-0.030823	-0.028076	0.12451	-0.006104	-0.023041	0.033264	-1.1435	0.1384	-0.13229	-0.15381	-0.11978	-0.11978	0.013733	-0.015717	-0.011139	0.092468	-0.001984	1.6646	-0.086212	-0.004272	-0.010986
40.71	-0.011749	-0.39032	0.007019	-0.001221	-0.013885	0.000305	0.13001	0.009918	-0.032349	0.026703	-0.10666	-0.033722	-0.008087	0.10712	-0.021667	-0.021973	0.046692	-0.98892	-0.17487	-0.10986	-0.042114	-0.14297	-0.16876	0.11475	0.019226	-0.006561	0.042267	-0.001373	1.1505	-0.099182	-0.007172	-0.013123
40.711	-0.017853	-0.40741	0.005035	-0.001373	-0.007782	0.003204	0.19638	0.016937	-0.034637	0.014038	-0.1503	-0.035706	0.02533	0.10193	-0.013275	-0.004883	0.00885	-1.0321	-0.36346	-0.098724	-0.023804	-0.086823	-0.081787	0.12466	0.006714	-0.006714	0.080414	0.004578	0.88867	-0.11917	-0.001831	-0.010071
40.712	-0.00885	-0.36545	0.007172	-0.010223	-0.000763	0.023499	0.17731	0.009155	-0.042114	0.0177	-0.10208	-0.029755	-0.029907	0.10925	-0.007324	-0.020599	-0.053558	-0.94849	-0.7164	-0.05249	-0.21835	0.057373	-0.12283	0.14801	0.063019	0.007324	0.007019	0.001221	1.0385	-0.30456	-0.003967	-0.002747
40.713	-0.00824	-0.34927	0.02182	-0.006409	-0.002136	0.008392	0.056	0.013275	-0.040741	0.02594	-0.097504	-0.052338	-0.045013	0.15747	0.063019	-0.005035	-0.058289	-0.79224	-0.11734	-0.05722	-0.12634	0.19272	-0.12726	0.16556	0.081329	0.001373	0.090179	0.001526	-1.1751	-0.21027	-0.00412	-0.00061
40.714	-0.009613	-0.33676	0.050964	-0.014496	-0.014954	0.007629	0.036926	0.013123	-0.025635	0.023041	0.016327	-0.049438	-0.020905	0.14862	0.24658	-0.005798	-0.010986	-0.65277	0.44693	-0.003967	0.047302	0.14923	-0.089874	0.11368	0.044403	-0.014954	0.19028	0.004425	-2.0528	0.056915	-0.002747	-0.007324
40.715	-0.00473	-0.34088	-0.015259	0.001221	-0.00885	0.012512	0.10605	0.00473	-0.029907	0.007019	0.12024	-0.037689	0.057983	0.16327	-0.028076	-0.014038	-0.005341	-0.53787	0.13245	0.072327	0.19592	-0.033417	-0.15701	0.19424	0.019531	-0.010376	0.20493	0.004272	-1.3242	0.042725	-0.01297	-0.009766
40.716	0.007324	-0.36484	0.007935	-0.017242	0.003204	0.010223	0.16159	0.002747	-0.016785	0.020294	0.23285	-0.037689	0	0.11963	-0.12787	-0.020142	-0.005798	-0.57877	0.50812	-0.02182	0.14526	0.010834	-0.13825	0.19501	0.016479	0.001221	0.08316	0.003967	0.23178	-0.058289	-0.001678	-0.001984
40.717	0.010376	-0.36499	-0.018158	-0.011292	0.001678	0.009308	0.21912	-0.002136	0.012665	0.040283	0.094147	-0.031586	-0.021057	0.08316	-0.084381	-0.024567	0.02121	-0.48218	0.22614	-0.080872	0.11704	0.29816	-0.052185	0.12512	-0.009308	0.017548	-0.011292	0.002289	0.52139	-0.079498	-0.006104	0.005951
40.718	0.003052	-0.37308	-0.046692	-0.013275	-0.009155	0.011749	0.27374	-0.00351	0.0177	0.024414	-0.012817	-0.026703	-0.015869	0.10819	-0.020752	-0.024109	0.023804	-0.27802	0.019531	-0.090027	0.092773	0.26337	-0.023804	0.032196	-0.028381	0.000458	-0.003662	-0.000763	0.44235	-0.032959	-0.005493	0.003052
40.719	0.006561	-0.39337	-0.0737	-0.009613	0.00061	0.003967	0.21881	0.005188	0.012665	0.033875	-0.00412	-0.022125	-0.055695	0.12024	0.069122	-0.024567	0.025177	-0.18845	-0.16632	-0.016022	0.090637	0.054321	0.063629	-0.022736	-0.035858	-0.003357	0.089722	0.000916	0.8815	-0.015259	-0.003967	-0.000458
40.72	0.006866	-0.39154	-0.078735	-0.004272	0.011597	0.020447	0.10635	0.013275	0.008392	0.049591	0.12802	-0.02121	-0.056	0.14175	-0.041046	-0.009308	0.037537	-0.089264	-0.28	0.010071	0.030518	-0.042572	0.15808	-0.21362	-0.065155	-0.004425	0.006104	-0.000916	1.4522	-0.023804	-0.003662	-0.010071
40.721	0.016022	-0.39108	-0.089111	0.020752	0.004883	0.011902	0.054321	0.017395	0.013733	0.032654	0.20889	-0.00412	-0.038757	0.15533	0.69412	-0.005646	0.024567	0.10971	-0.33814	0.043945	-0.071259	-0.11246	0.13397	-0.25559	-0.084686	-0.007629	0.093231	0.001373	1.1534	-0.18356	-0.002289	-0.012512
